HIERARCHY
ROOT Hips
{
	OFFSET 0.000000 0.000000 0.000000
	CHANNELS 6 Xposition Yposition Zposition Zrotation Yrotation Xrotation 
	JOINT LHipJoint
	{
		OFFSET 0.000000 0.000000 0.000000
		CHANNELS 3 Zrotation Yrotation Xrotation
		JOINT LeftUpLeg
		{
			OFFSET 1.363060 -1.794630 0.839290
			CHANNELS 3 Zrotation Yrotation Xrotation
			JOINT LeftLeg
			{
				OFFSET 2.448110 -6.726130 0.000000
				CHANNELS 3 Zrotation Yrotation Xrotation
				JOINT LeftFoot
				{
					OFFSET 2.562200 -7.039590 0.000000
					CHANNELS 3 Zrotation Yrotation Xrotation
					JOINT LeftToeBase
					{
						OFFSET 0.157640 -0.433110 2.322550
						CHANNELS 3 Zrotation Yrotation Xrotation
						End Site
						{
							OFFSET 0.000000 0.000000 0.000000
						}
					}
				}
			}
		}
	}
	JOINT RHipJoint
	{
		OFFSET 0.000000 0.000000 0.000000
		CHANNELS 3 Zrotation Yrotation Xrotation
		JOINT RightUpLeg
		{
			OFFSET -1.305520 -1.794630 0.839290
			CHANNELS 3 Zrotation Yrotation Xrotation
			JOINT RightLeg
			{
				OFFSET -2.542530 -6.985550 0.000000
				CHANNELS 3 Zrotation Yrotation Xrotation
				JOINT RightFoot
				{
					OFFSET -2.568260 -7.056230 0.000000
					CHANNELS 3 Zrotation Yrotation Xrotation
					JOINT RightToeBase
					{
						OFFSET -0.164730 -0.452590 2.363150
						CHANNELS 3 Zrotation Yrotation Xrotation
						End Site
						{
							OFFSET 0.000000 0.000000 0.000000
						}
					}
				}
			}
		}
	}
	JOINT LowerBack
	{
		OFFSET 0.000000 0.000000 0.000000
		CHANNELS 3 Zrotation Yrotation Xrotation
		JOINT Spine
		{
			OFFSET 0.028270 2.035590 -0.193380
			CHANNELS 3 Zrotation Yrotation Xrotation
			JOINT Spine1
			{
				OFFSET 0.056720 2.048850 -0.042750
				CHANNELS 3 Zrotation Yrotation Xrotation
				JOINT Neck
				{
					OFFSET 0.000000 0.000000 0.000000
					CHANNELS 3 Zrotation Yrotation Xrotation
					JOINT Neck1
					{
						OFFSET -0.054170 1.746240 0.172020
						CHANNELS 3 Zrotation Yrotation Xrotation
						JOINT Head
						{
							OFFSET 0.104070 1.761360 -0.123970
							CHANNELS 3 Zrotation Yrotation Xrotation
							End Site
							{
								OFFSET 0.000000 0.000000 0.000000
							}
						}
					}
				}
				JOINT LeftShoulder
				{
					OFFSET 0.000000 0.000000 0.000000
					CHANNELS 3 Zrotation Yrotation Xrotation
					JOINT LeftArm
					{
						OFFSET 3.362410 1.200890 -0.311210
						CHANNELS 3 Zrotation Yrotation Xrotation
						JOINT LeftForeArm
						{
							OFFSET 4.983000 -0.000000 -0.000000
							CHANNELS 3 Zrotation Yrotation Xrotation
							JOINT LeftHand
							{
								OFFSET 3.483560 -0.000000 -0.000000
								CHANNELS 3 Zrotation Yrotation Xrotation
								JOINT LeftFingerBase
								{
									OFFSET 0.000000 0.000000 0.000000
									CHANNELS 3 Zrotation Yrotation Xrotation
									JOINT LeftHandIndex1
									{
										OFFSET 0.715260 -0.000000 -0.000000
										CHANNELS 3 Zrotation Yrotation Xrotation
										End Site
										{
											OFFSET 0.000000 0.000000 0.000000
										}
									}
								}
								JOINT LThumb
								{
									OFFSET 0.000000 0.000000 0.000000
									CHANNELS 3 Zrotation Yrotation Xrotation
									End Site
									{
										OFFSET 0.000000 0.000000 0.000000
									}
								}
							}
						}
					}
				}
				JOINT RightShoulder
				{
					OFFSET 0.000000 0.000000 0.000000
					CHANNELS 3 Zrotation Yrotation Xrotation
					JOINT RightArm
					{
						OFFSET -3.136600 1.374050 -0.404650
						CHANNELS 3 Zrotation Yrotation Xrotation
						JOINT RightForeArm
						{
							OFFSET -5.241900 -0.000000 -0.000000
							CHANNELS 3 Zrotation Yrotation Xrotation
							JOINT RightHand
							{
								OFFSET -3.444170 -0.000000 -0.000000
								CHANNELS 3 Zrotation Yrotation Xrotation
								JOINT RightFingerBase
								{
									OFFSET 0.000000 0.000000 0.000000
									CHANNELS 3 Zrotation Yrotation Xrotation
									JOINT RightHandIndex1
									{
										OFFSET -0.622530 -0.000000 -0.000000
										CHANNELS 3 Zrotation Yrotation Xrotation
										End Site
										{
											OFFSET 0.000000 0.000000 0.000000
										}
									}
								}
								JOINT RThumb
								{
									OFFSET 0.000000 0.000000 0.000000
									CHANNELS 3 Zrotation Yrotation Xrotation
									End Site
									{
										OFFSET 0.000000 0.000000 0.000000
									}
								}
							}
						}
					}
				}
			}
		}
	}
}
MOTION
Frames: 7
Frame Time: 0.008333
10.580412 10.145731 -0.891118 -125.352616 86.394852 -76.466291 2.352407 -0.455908 -0.842984 -0.408048 9.089515 -35.954635 21.764425 19.802869 101.891373 4.451823 -15.425970 53.015714 0.761900 5.574500 15.554600 -2.014626 2.227758 -2.726252 13.929653 10.417067 -40.608416 -24.836255 -20.052199 108.121925 -2.800858 7.209793 46.965996 -0.247300 -3.200100 8.836400 2.656770 0.035081 42.464425 2.771675 2.265465 2.670092 -0.422277 1.176282 -15.707247 -2.472277 1.143907 -4.639204 -1.808934 0.137752 -22.356261 -2.067200 -0.024900 -6.848700 0.360668 -13.138337 -1.365198 -34.887025 -50.129006 29.061777 19.332203 -23.783606 -7.774783 -0.189801 1.942292 16.021014 60.842309 -10.338643 -23.620800 -7.125000 0.000000 0.000000 21.425300 4.394100 -21.299400 1.897840 11.403205 1.511398 27.062397 35.895982 32.997097 -38.818732 41.312616 -17.834526 -0.000347 -1.151863 25.894517 -60.907617 -5.390022 5.866100 7.125000 0.000000 0.000000 -28.424300 -35.203000 -7.644100 
10.650316 10.151298 -0.876580 -125.454358 86.484686 -76.401078 2.508370 -0.536991 -1.015070 -0.273888 9.419216 -36.759613 22.017169 19.777352 102.825320 4.445915 -15.867572 53.458497 0.769700 5.602000 15.633800 -2.031996 2.173399 -2.638403 13.986601 10.603945 -40.401432 -24.791549 -20.063907 107.780990 -2.940140 6.875714 47.686778 -0.254900 -3.248200 8.970600 2.495659 0.201991 42.281487 2.734264 2.359659 2.645229 -0.523978 1.225104 -15.700254 -2.321169 1.111757 -4.574825 -1.886146 0.087544 -22.302047 -2.116700 -0.054900 -6.848600 0.353018 -13.149011 -1.300969 -35.411838 -50.244689 29.656900 19.430307 -23.790268 -7.834929 -0.152198 1.939338 16.110493 61.120388 -10.752816 -24.527700 -7.125000 0.000000 0.000000 21.420400 3.473700 -21.684600 1.874659 11.446782 1.402658 26.404267 36.214658 31.171446 -38.525580 41.155201 -17.687679 0.054463 -1.161669 25.120716 -60.556360 -5.661457 6.333500 7.125000 0.000000 0.000000 -28.356000 -35.722200 -7.212300 
10.718879 10.156247 -0.861733 -124.988376 86.609004 -75.780825 2.656525 -0.623307 -1.187630 -0.174796 9.749063 -37.559223 22.248822 19.745288 103.736674 4.429343 -16.377789 53.868452 0.768600 5.598000 15.622500 -2.053893 2.113218 -2.550750 14.006264 10.799594 -40.202082 -24.755372 -20.073759 107.492760 -3.044413 6.566054 48.187103 -0.266900 -3.323700 9.181300 2.272905 0.393984 42.107285 2.693316 2.462269 2.619459 -0.604392 1.281446 -15.701513 -2.179470 1.083213 -4.498312 -1.951332 0.043160 -22.255695 -2.160500 -0.081900 -6.852700 0.344431 -13.163678 -1.228892 -35.941944 -50.356808 30.249604 19.521532 -23.790887 -7.892904 -0.115374 1.935857 16.212049 61.404860 -11.169368 -25.448800 -7.125000 0.000000 0.000000 21.419000 2.542200 -22.071800 1.848562 11.494848 1.280931 25.727503 36.581637 29.368426 -38.133721 40.937075 -17.467077 0.114670 -1.172895 24.321847 -60.148349 -5.954918 6.812400 7.125000 0.000000 0.000000 -28.253600 -36.266200 -6.754000 
10.786308 10.160681 -0.846680 -124.017904 86.763373 -74.670558 2.797699 -0.716008 -1.361368 -0.108535 10.067916 -38.351279 22.464782 19.706545 104.620635 4.409020 -16.906865 54.282345 0.765300 5.586500 15.589200 -2.077410 2.047383 -2.462546 13.991160 11.002311 -40.009066 -24.728499 -20.081380 107.256768 -3.118837 6.274937 48.511987 -0.283000 -3.421100 9.453500 2.004272 0.604183 41.943228 2.646526 2.572006 2.593965 -0.673884 1.343839 -15.708883 -2.043593 1.054420 -4.410977 -2.005678 -0.000678 -22.216653 -2.199200 -0.108700 -6.860600 0.335231 -13.181266 -1.149548 -36.483852 -50.469745 30.842440 19.611073 -23.788836 -7.950644 -0.078552 1.931583 16.326742 61.691527 -11.587413 -26.378100 -7.125000 0.000000 0.000000 21.418900 1.604300 -22.455900 1.819394 11.546715 1.147548 25.042774 36.991073 27.576894 -37.647464 40.659975 -17.177933 0.178804 -1.185003 23.539795 -59.693790 -6.263000 7.287100 7.125000 0.000000 0.000000 -28.117900 -36.818900 -6.284200 
10.852810 10.164805 -0.831731 -122.638559 86.934377 -73.177490 2.932860 -0.812654 -1.534944 -0.062348 10.366708 -39.119681 22.666975 19.661910 105.475185 4.386515 -17.438561 54.700528 0.759300 5.565100 15.527700 -2.097902 1.974925 -2.372061 13.954658 11.197750 -39.806528 -24.706405 -20.085587 107.064704 -3.171768 6.023674 48.723784 -0.299700 -3.519700 9.729300 1.715091 0.823959 41.808130 2.593820 2.690158 2.570113 -0.745575 1.411774 -15.726051 -1.912457 1.022290 -4.305008 -2.051350 -0.049300 -22.195872 -2.233400 -0.137500 -6.877500 0.325772 -13.201727 -1.064501 -37.040877 -50.589549 31.443823 19.702525 -23.785208 -8.008743 -0.041868 1.926673 16.448375 61.972420 -11.995684 -27.289800 -7.125000 0.000000 0.000000 21.419000 0.685400 -22.825500 1.787430 11.601557 1.005072 24.352942 37.430874 25.786978 -37.066292 40.322931 -16.823148 0.244306 -1.197695 22.827056 -59.206331 -6.561026 7.716000 7.125000 0.000000 0.000000 -27.942700 -37.336400 -5.837300 
10.918692 10.168619 -0.817090 -120.917949 87.116606 -71.375479 3.062865 -0.913366 -1.708582 -0.033103 10.636244 -39.860517 22.859379 19.611740 106.298052 4.366843 -17.938750 55.140749 0.758000 5.560300 15.513700 -2.112246 1.896319 -2.278445 13.900476 11.377068 -39.589247 -24.688042 -20.085937 106.909538 -3.210613 5.810974 48.868491 -0.318100 -3.625700 10.026000 1.419012 1.047341 41.706030 2.534082 2.815407 2.549190 -0.826319 1.483971 -15.751325 -1.775419 0.984252 -4.186902 -2.097622 -0.107035 -22.188271 -2.267800 -0.170600 -6.901300 0.316351 -13.223875 -0.974767 -37.612572 -50.718544 32.055902 19.798702 -23.782899 -8.068259 -0.004993 1.920860 16.576790 62.245463 -12.393530 -28.179800 -7.125000 0.000000 0.000000 21.418500 -0.211100 -23.178300 1.753100 11.659262 0.856010 23.660608 37.891127 23.992157 -36.394385 39.927695 -16.408582 0.308659 -1.210926 22.229871 -58.703047 -6.828871 8.069900 7.125000 0.000000 0.000000 -27.728500 -37.785500 -5.440200 
10.984060 10.172022 -0.802862 -119.006515 87.296841 -69.413004 3.190753 -1.016688 -1.883168 -0.007637 10.866478 -40.573762 23.043417 19.558113 107.089562 4.349045 -18.409213 55.586695 0.759000 5.564100 15.524600 -2.117737 1.812881 -2.181134 13.844682 11.532776 -39.353375 -24.668886 -20.082308 106.782694 -3.241166 5.659330 48.985133 -0.335300 -3.721000 10.293100 1.139702 1.267274 41.635000 2.468440 2.947962 2.531717 -0.926185 1.559094 -15.781750 -1.628253 0.937049 -4.055789 -2.149028 -0.178626 -22.194534 -2.304400 -0.210300 -6.932700 0.307415 -13.247006 -0.881658 -38.201141 -50.862047 32.687778 19.900067 -23.780256 -8.128639 0.032048 1.914610 16.713237 62.503345 -12.769969 -29.023700 -7.125000 0.000000 0.000000 21.416700 -1.061100 -23.504800 1.716879 11.719211 0.703212 22.966482 38.360087 22.191182 -35.638638 39.477610 -15.943385 0.372107 -1.224156 21.760294 -58.228581 -7.075869 8.381100 7.125000 0.000000 0.000000 -27.520100 -38.190000 -5.085300 
